<?xml version="1.0" encoding="UTF-8"?>
<svg width="1240" height="1754" viewBox="0 0 1240 1754" fill="none" xmlns="http://www.w3.org/2000/svg">
<rect width="1240" height="1754" fill="#F3FAF6"/>
<rect x="70" y="70" width="1100" height="1614" rx="34" fill="#FFFFFF" stroke="#CFE8D8" stroke-width="2"/>
<image href="jvision-logo.png" x="108" y="112" width="214" height="60" preserveAspectRatio="xMinYMid meet"/>
<text x="108" y="266" fill="#157347" font-family="Arial, Microsoft JhengHei, sans-serif" font-size="30" font-weight="700">Jvision Customer Support Platform</text>
<text x="108" y="356" fill="#12332A" font-family="Arial, Microsoft JhengHei, sans-serif" font-size="70" font-weight="800">客服支援平台 Demo</text>
<text x="108" y="442" fill="#12332A" font-family="Arial, Microsoft JhengHei, sans-serif" font-size="52" font-weight="800">收件箱、AI、知識庫與報表一套完成</text>
<text x="108" y="526" fill="#667085" font-family="Arial, Microsoft JhengHei, sans-serif" font-size="30">整合客服對話、AI 回覆、知識庫、主動訊息與團隊洞察。</text>
<text x="108" y="574" fill="#667085" font-family="Arial, Microsoft JhengHei, sans-serif" font-size="30">掃描 QR Code 可直接進入線上互動 Demo。</text>
<rect x="108" y="672" width="1024" height="420" rx="28" fill="#12332A"/>
<rect x="158" y="728" width="292" height="280" rx="22" fill="#FFFFFF"/>
<rect x="474" y="728" width="292" height="280" rx="22" fill="#ECFDF3"/>
<rect x="790" y="728" width="292" height="280" rx="22" fill="#FFFFFF"/>
<text x="190" y="806" fill="#157347" font-family="Arial, Microsoft JhengHei, sans-serif" font-size="32" font-weight="800">共享收件箱</text>
<text x="190" y="874" fill="#12332A" font-family="Arial, Microsoft JhengHei, sans-serif" font-size="26">跨渠道對話</text>
<text x="190" y="932" fill="#12332A" font-family="Arial, Microsoft JhengHei, sans-serif" font-size="26">自動分派</text>
<text x="506" y="806" fill="#157347" font-family="Arial, Microsoft JhengHei, sans-serif" font-size="32" font-weight="800">AI 與知識庫</text>
<text x="506" y="874" fill="#12332A" font-family="Arial, Microsoft JhengHei, sans-serif" font-size="26">摘要草稿</text>
<text x="506" y="932" fill="#12332A" font-family="Arial, Microsoft JhengHei, sans-serif" font-size="26">自助文章</text>
<text x="822" y="806" fill="#157347" font-family="Arial, Microsoft JhengHei, sans-serif" font-size="32" font-weight="800">客服洞察</text>
<text x="822" y="874" fill="#12332A" font-family="Arial, Microsoft JhengHei, sans-serif" font-size="26">SLA 報表</text>
<text x="822" y="932" fill="#12332A" font-family="Arial, Microsoft JhengHei, sans-serif" font-size="26">滿意度追蹤</text>
<text x="108" y="1192" fill="#12332A" font-family="Arial, Microsoft JhengHei, sans-serif" font-size="38" font-weight="800">適用情境</text>
<text x="108" y="1260" fill="#667085" font-family="Arial, Microsoft JhengHei, sans-serif" font-size="28">SaaS、電商、教育、物流、旅宿、製造與專業服務。</text>
<text x="108" y="1352" fill="#12332A" font-family="Arial, Microsoft JhengHei, sans-serif" font-size="38" font-weight="800">掃描 QR Code 進入 Demo</text>
<text x="108" y="1410" fill="#667085" font-family="Arial, Microsoft JhengHei, sans-serif" font-size="26">https://jvision-customer-support-platform.vercel.app</text>
<rect x="852" y="1238" width="280" height="280" rx="24" fill="#FFFFFF" stroke="#CFE8D8" stroke-width="2"/>
<g transform="translate(867 1253)"><path fill="#ffffff" d="M0 0h35v35H0z"/><path stroke="#12332A" d="M1 1.5h7m3 0h1m2 0h1m2 0h6m1 0h1m2 0h7M1 2.5h1m5 0h1m2 0h7m1 0h1m2 0h1m5 0h1m5 0h1M1 3.5h1m1 0h3m1 0h1m1 0h1m1 0h1m1 0h2m1 0h1m1 0h5m2 0h1m1 0h1m1 0h3m1 0h1M1 4.5h1m1 0h3m1 0h1m1 0h2m4 0h3m2 0h1m2 0h2m2 0h1m1 0h3m1 0h1M1 5.5h1m1 0h3m1 0h1m1 0h1m1 0h1m1 0h2m1 0h1m1 0h2m4 0h1m2 0h1m1 0h3m1 0h1M1 6.5h1m5 0h1m1 0h1m1 0h1m1 0h5m5 0h1m3 0h1m5 0h1M1 7.5h7m1 0h1m1 0h1m1 0h1m1 0h1m1 0h1m1 0h1m1 0h1m1 0h1m1 0h1m1 0h7M9 8.5h3m3 0h2m5 0h2M1 9.5h1m1 0h5m2 0h1m2 0h6m4 0h1m1 0h1m1 0h5M2 10.5h1m1 0h3m2 0h1m1 0h2m2 0h1m1 0h1m1 0h4m1 0h1m2 0h2m1 0h4M2 11.5h1m1 0h2m1 0h1m1 0h1m2 0h2m2 0h1m2 0h1m6 0h2m1 0h1m1 0h2M2 12.5h2m2 0h1m5 0h1m2 0h2m4 0h7m1 0h4M1 13.5h1m2 0h1m2 0h2m3 0h1m3 0h1m2 0h1m1 0h1m1 0h1m1 0h2m1 0h3m1 0h2M2 14.5h2m2 0h1m1 0h3m1 0h2m1 0h3m2 0h2m2 0h1m1 0h2m3 0h3M3 15.5h1m3 0h1m2 0h4m9 0h1m1 0h5m1 0h2M1 16.5h1m2 0h3m1 0h1m5 0h1m2 0h1m4 0h1m1 0h1m1 0h2m2 0h2M1 17.5h3m1 0h1m1 0h3m1 0h1m2 0h2m1 0h2m2 0h1m4 0h1m1 0h2m3 0h1M1 18.5h1m1 0h1m5 0h7m1 0h2m1 0h3m1 0h1m2 0h2m1 0h2m1 0h1M2 19.5h2m1 0h3m1 0h2m1 0h2m1 0h4m2 0h3m4 0h2m1 0h1M1 20.5h1m3 0h2m3 0h2m4 0h5m1 0h2m1 0h1m1 0h5M6 21.5h3m1 0h1m2 0h1m2 0h2m3 0h1m1 0h2m1 0h1m1 0h3m1 0h1M1 22.5h1m1 0h1m1 0h2m1 0h1m1 0h1m1 0h1m1 0h1m1 0h1m2 0h3m2 0h1m2 0h1m2 0h1m2 0h1M1 23.5h1m2 0h1m2 0h2m3 0h1m3 0h4m1 0h3m1 0h1m1 0h2m2 0h2M1 24.5h1m2 0h1m1 0h1m2 0h3m2 0h1m1 0h1m2 0h1m2 0h3m2 0h1m2 0h2M1 25.5h1m1 0h1m3 0h3m1 0h9m1 0h1m1 0h7m2 0h1M9 26.5h1m1 0h1m1 0h1m1 0h1m1 0h1m1 0h3m3 0h1m3 0h1m1 0h3M1 27.5h7m3 0h7m1 0h1m1 0h5m1 0h1m1 0h1m1 0h2M1 28.5h1m5 0h1m1 0h3m9 0h2m1 0h2m3 0h3m1 0h1M1 29.5h1m1 0h3m1 0h1m1 0h1m2 0h1m2 0h2m2 0h1m5 0h6M1 30.5h1m1 0h3m1 0h1m1 0h1m1 0h1m2 0h1m1 0h3m1 0h3m3 0h1m2 0h1m1 0h3M1 31.5h1m1 0h3m1 0h1m1 0h4m11 0h5m1 0h2M1 32.5h1m5 0h1m2 0h1m3 0h2m1 0h1m2 0h4m2 0h2m1 0h3M1 33.5h7m1 0h5m1 0h1m1 0h2m1 0h2m1 0h1m1 0h2m1 0h1m1 0h1m1 0h1"/>
</g>
<rect x="108" y="1574" width="486" height="4" fill="#157347"/>
<text x="108" y="1632" fill="#667085" font-family="Arial, Microsoft JhengHei, sans-serif" font-size="24">Jvision AI | 客服支援平台互動展示</text>
<image href="customer-support-qr.png" x="867" y="1253" width="250" height="250"/>
</svg>
